<?xml version="1.0" standalone="no"?>
<!DOCTYPE svg PUBLIC "-//W3C//DTD SVG 20010904//EN"
 "http://www.w3.org/TR/2001/REC-SVG-20010904/DTD/svg10.dtd">
<svg version="1.0" xmlns="http://www.w3.org/2000/svg"
 width="32.000000pt" height="32.000000pt" viewBox="0 0 32.000000 32.000000"
 preserveAspectRatio="xMidYMid meet">

<g transform="translate(0.000000,32.000000) scale(0.100000,-0.100000)"
fill="#000000" stroke="none">
<path d="M130 287 c-14 -7 -26 -23 -28 -35 -2 -12 -10 -22 -17 -22 -8 0 -19
-8 -24 -17 -12 -23 -18 -164 -8 -180 11 -18 203 -18 214 0 10 16 4 157 -8 180
-5 9 -16 17 -24 17 -8 0 -15 6 -15 13 0 39 -51 64 -90 44z m51 -17 c34 -19 23
-40 -21 -40 -43 0 -55 20 -22 39 21 13 20 13 43 1z m-81 -91 c0 -17 4 -28 10
-24 6 3 10 17 10 31 0 21 4 24 40 24 36 0 40 -3 40 -24 0 -14 5 -28 10 -31 6
-4 10 7 10 25 0 21 4 30 13 28 16 -6 27 -159 11 -165 -6 -2 -48 -3 -94 -1
l-83 3 2 75 c1 41 5 78 7 82 11 18 24 6 24 -23z"/>
</g>
</svg>
