<svg width="140" height="33" viewBox="0 0 140 33" fill="none" xmlns="http://www.w3.org/2000/svg">
<path d="M53.5465 12.3195C53.1999 11.6809 52.6982 11.1975 52.0414 10.8691C51.4028 10.5224 50.6457 10.3491 49.7699 10.3491C48.2556 10.3491 47.0424 10.8508 46.1301 11.8543C45.2179 12.8395 44.7618 14.1622 44.7618 15.8224C44.7618 17.5921 45.2362 18.9788 46.1849 19.9822C47.1519 20.9674 48.4745 21.46 50.1531 21.46C51.3025 21.46 52.2695 21.1681 53.0539 20.5842C53.8567 20.0004 54.4405 19.1612 54.8054 18.0665H48.8668V14.6183H59.0472V18.9696C58.7006 20.1372 58.1076 21.2228 57.2684 22.2262C56.4474 23.2297 55.3983 24.0416 54.1212 24.6619C52.8442 25.2822 51.4028 25.5924 49.7973 25.5924C47.8998 25.5924 46.2031 25.1819 44.7071 24.3609C43.2293 23.5216 42.0707 22.3631 41.2315 20.8853C40.4105 19.4075 40 17.7199 40 15.8224C40 13.925 40.4105 12.2374 41.2315 10.7596C42.0707 9.26357 43.2293 8.10501 44.7071 7.28401C46.1849 6.4448 47.8725 6.02514 49.7699 6.02514C52.0687 6.02514 54.0026 6.58163 55.5717 7.69451C57.1589 8.80739 58.208 10.3491 58.7188 12.3195H53.5465ZM66.3191 12.73C66.8665 11.8908 67.5506 11.234 68.3716 10.7596C69.1926 10.267 70.1049 10.0207 71.1083 10.0207V14.9741H69.8221C68.6544 14.9741 67.7787 15.2295 67.1949 15.7403C66.611 16.2329 66.3191 17.1087 66.3191 18.3675V25.4555H61.6394V10.1849H66.3191V12.73ZM80.2963 25.6745C78.8001 25.6745 77.4501 25.3552 76.246 24.7166C75.0601 24.078 74.1204 23.1659 73.4272 21.9799C72.7521 20.794 72.4146 19.4075 72.4146 17.8202C72.4146 16.2511 72.7613 14.8738 73.4546 13.6878C74.1478 12.4837 75.0966 11.5624 76.3007 10.9238C77.5049 10.2852 78.8549 9.96595 80.351 9.96595C81.847 9.96595 83.1971 10.2852 84.4013 10.9238C85.6054 11.5624 86.5541 12.4837 87.2474 13.6878C87.9406 14.8738 88.2874 16.2511 88.2874 17.8202C88.2874 19.3893 87.9316 20.7758 87.2201 21.9799C86.5267 23.1659 85.5689 24.078 84.3465 24.7166C83.1424 25.3552 81.7923 25.6745 80.2963 25.6745ZM80.2963 21.6242C81.1902 21.6242 81.9473 21.2958 82.5677 20.639C83.2062 19.9822 83.5255 19.0426 83.5255 17.8202C83.5255 16.5979 83.2153 15.6582 82.5951 15.0014C81.993 14.3446 81.2449 14.0162 80.351 14.0162C79.4387 14.0162 78.6816 14.3446 78.0796 15.0014C77.4775 15.64 77.1765 16.5795 77.1765 17.8202C77.1765 19.0426 77.4683 19.9822 78.0522 20.639C78.6543 21.2958 79.4022 21.6242 80.2963 21.6242ZM112.69 10.1849L108.558 25.4555H103.386L100.978 15.5488L98.4875 25.4555H93.3425L89.1828 10.1849H93.8625L96.0245 21.1042L98.5969 10.1849H103.55L106.15 21.0495L108.284 10.1849H112.69ZM122.138 14.071H119.62V25.4555H114.941V14.071H113.244V10.1849H114.941V9.74702C114.941 7.86787 115.479 6.4448 116.555 5.4778C117.632 4.4926 119.21 4 121.29 4C121.636 4 121.892 4.00913 122.056 4.02737V7.99554C121.162 7.94081 120.533 8.06849 120.168 8.37868C119.802 8.68887 119.62 9.24526 119.62 10.0481V10.1849H122.138V14.071ZM139.936 10.1849L130.358 32.7077H125.322L128.825 24.9356L122.613 10.1849H127.84L131.37 19.7359L134.873 10.1849H139.936Z" fill="white"/>
<path d="M16.1565 7.63203C16.1565 3.5628 19.4552 0.264065 23.5244 0.264065H30.8924V7.63203C30.8924 11.7013 27.5937 15 23.5244 15C19.4552 15 16.1565 11.7013 16.1565 7.63203Z" fill="#FF6D35"/>
<path d="M23.5243 32.6771C19.4551 32.6771 16.1564 29.3784 16.1564 25.3092V17.9412H23.5243C27.5936 17.9412 30.8923 21.2399 30.8923 25.3092C30.8923 29.3784 27.5936 32.6771 23.5243 32.6771Z" fill="#5CC97B"/>
<path d="M13.8348 15.6522C13.8348 7.47541 7.70857 0.846943 0.151466 0.846943V25.0214C0.151466 29.1097 3.21458 32.424 6.99325 32.424C10.7718 32.424 13.8348 29.1097 13.8348 25.0214V15.6522Z" fill="#3D96F4"/>
</svg>
