<svg width="140" height="110" viewBox="0 0 140 110" fill="none" xmlns="http://www.w3.org/2000/svg">
<path d="M22.8354 29.9975C23.6462 30.145 24.6781 30.6609 26.0049 31.5454C27.3317 32.43 29.027 33.8305 31.0909 35.6732C33.1548 37.516 35.6609 39.8747 38.6831 42.7494C41.7052 45.6241 45.3907 49.0884 49.6659 53.0688V29.9238H60.2801V62.3563C60.2801 62.9459 60.059 63.5356 59.7641 64.0516C59.4693 64.6413 59.027 65.0835 58.5111 65.5258C57.9214 65.9681 57.3317 66.3366 56.5946 66.6314C55.8575 66.9263 55.0467 67 54.3096 67H52.2457C52.0246 67 51.8772 67 51.8772 66.9263C51.0664 66.8526 49.9607 66.3366 48.6339 65.3784C47.3071 64.4939 45.5381 63.0934 43.4005 61.1769C41.2629 59.3341 38.6831 56.9754 35.6609 54.1007C32.6388 51.226 29.1007 47.7617 24.973 43.7813V67H14.3587V34.5676C14.3587 34.0516 14.5061 33.5356 14.801 32.9459C15.0958 32.3563 15.5381 31.8403 16.1278 31.398C16.6437 30.9558 17.3071 30.6609 18.0442 30.3661C18.7813 30.0712 19.5184 29.9238 20.403 29.9238H22.3931C22.6143 29.9238 22.7617 29.9975 22.8354 29.9975ZM64.9624 67H75.6504V44.0762H64.9624V67ZM75.6504 29.9238H64.9624V39.8747H75.6504V29.9238ZM90.9809 29.9238H80.3667V67H90.9809V52.9951H101.079L126.141 81.742H139.261L110.44 48.4988L126.509 29.9238H113.315L101.079 43.9287H90.9809V29.9238Z" fill="white"/>
<path d="M44.7146 79.1309L43.4473 75.4038H43.7349L44.9382 78.9658H44.7944L46.035 75.4038H46.2959L47.5258 78.9658H47.3874L48.6013 75.4038H48.8676L47.6057 79.1309H47.3182L46.1255 75.686H46.1947L45.0021 79.1309H44.7146ZM50.9548 79.1309V75.4038H51.2263V79.1309H50.9548ZM53.8295 79.1309V75.4038H54.0585L56.7153 78.7954H56.5929V75.4038H56.8644V79.1309H56.6408L53.9786 75.7392H54.101V79.1309H53.8295ZM59.4704 79.1309V75.4038H60.9453C61.3393 75.4038 61.6854 75.4837 61.9835 75.6434C62.2817 75.8031 62.5124 76.0232 62.6757 76.3036C62.8425 76.584 62.9259 76.9053 62.9259 77.2673C62.9259 77.6294 62.8425 77.9506 62.6757 78.231C62.5124 78.5115 62.2817 78.7315 61.9835 78.8913C61.6854 79.051 61.3393 79.1309 60.9453 79.1309H59.4704ZM59.742 78.8859H60.924C61.2754 78.8859 61.5807 78.8167 61.8398 78.6783C62.0989 78.5399 62.2994 78.35 62.4414 78.1086C62.5834 77.8637 62.6544 77.5832 62.6544 77.2673C62.6544 76.9514 62.5834 76.6728 62.4414 76.4314C62.2994 76.1865 62.0989 75.9948 61.8398 75.8564C61.5807 75.7179 61.2754 75.6487 60.924 75.6487H59.742V78.8859ZM66.7551 79.1575C66.4782 79.1575 66.2209 79.1113 65.9831 79.019C65.7488 78.9232 65.5429 78.7901 65.3654 78.6197C65.1915 78.4458 65.0566 78.2452 64.9608 78.0181C64.8649 77.7873 64.817 77.5371 64.817 77.2673C64.817 76.9976 64.8649 76.7491 64.9608 76.5219C65.0566 76.2912 65.1915 76.0906 65.3654 75.9203C65.5429 75.7463 65.7488 75.6132 65.9831 75.5209C66.2209 75.4251 66.4782 75.3772 66.7551 75.3772C67.032 75.3772 67.2875 75.4251 67.5218 75.5209C67.7596 75.6132 67.9655 75.7446 68.1394 75.9149C68.3134 76.0853 68.4482 76.2859 68.5441 76.5166C68.6435 76.7438 68.6932 76.994 68.6932 77.2673C68.6932 77.5406 68.6435 77.7927 68.5441 78.0234C68.4482 78.2506 68.3134 78.4493 68.1394 78.6197C67.9655 78.7901 67.7596 78.9232 67.5218 79.019C67.2875 79.1113 67.032 79.1575 66.7551 79.1575ZM66.7551 78.9072C66.9929 78.9072 67.213 78.8664 67.4153 78.7848C67.6176 78.7031 67.7933 78.5878 67.9424 78.4387C68.0915 78.2896 68.2069 78.1157 68.2885 77.9169C68.3737 77.7181 68.4163 77.5016 68.4163 77.2673C68.4163 77.0295 68.3737 76.813 68.2885 76.6178C68.2069 76.419 68.0915 76.245 67.9424 76.096C67.7933 75.9469 67.6176 75.8315 67.4153 75.7499C67.213 75.6682 66.9929 75.6274 66.7551 75.6274C66.5173 75.6274 66.2972 75.6682 66.0949 75.7499C65.8925 75.8315 65.7151 75.9469 65.5624 76.096C65.4133 76.245 65.2962 76.419 65.211 76.6178C65.1294 76.813 65.0886 77.0295 65.0886 77.2673C65.0886 77.5016 65.1294 77.7181 65.211 77.9169C65.2962 78.1157 65.4133 78.2896 65.5624 78.4387C65.7151 78.5878 65.8925 78.7031 66.0949 78.7848C66.2972 78.8664 66.5173 78.9072 66.7551 78.9072ZM71.6557 79.1309L70.3885 75.4038H70.676L71.8793 78.9658H71.7355L72.9761 75.4038H73.237L74.4669 78.9658H74.3285L75.5425 75.4038H75.8087L74.5468 79.1309H74.2593L73.0666 75.686H73.1358L71.9432 79.1309H71.6557ZM78.8756 79.1575C78.5987 79.1575 78.336 79.1113 78.0876 79.019C77.8426 78.9232 77.6527 78.8007 77.5178 78.6517L77.6403 78.4493C77.7681 78.5807 77.942 78.6925 78.1621 78.7848C78.3857 78.8735 78.6218 78.9179 78.8702 78.9179C79.1187 78.9179 79.321 78.8859 79.4772 78.822C79.6369 78.7546 79.7541 78.6659 79.8286 78.5558C79.9067 78.4458 79.9458 78.3233 79.9458 78.1884C79.9458 78.0287 79.9032 77.9009 79.818 77.8051C79.7328 77.7093 79.621 77.6329 79.4825 77.5761C79.3441 77.5193 79.1932 77.4714 79.03 77.4324C78.8667 77.3933 78.7016 77.3525 78.5348 77.3099C78.368 77.2638 78.2153 77.2052 78.0769 77.1342C77.9385 77.0632 77.8267 76.9674 77.7415 76.8467C77.6598 76.7225 77.619 76.5627 77.619 76.3675C77.619 76.19 77.6652 76.0268 77.7574 75.8777C77.8497 75.7286 77.9935 75.6079 78.1887 75.5156C78.3839 75.4233 78.6342 75.3772 78.9395 75.3772C79.1453 75.3772 79.3477 75.4073 79.5464 75.4677C79.7488 75.528 79.9209 75.6097 80.0629 75.7126L79.9617 75.9309C79.8056 75.8244 79.6369 75.7463 79.4559 75.6966C79.2784 75.6434 79.1063 75.6168 78.9395 75.6168C78.7016 75.6168 78.5046 75.6505 78.3484 75.7179C78.1923 75.7854 78.0769 75.8759 78.0024 75.9895C77.9278 76.0995 77.8906 76.2238 77.8906 76.3622C77.8906 76.5219 77.9314 76.6497 78.013 76.7455C78.0982 76.8414 78.21 76.9177 78.3484 76.9745C78.4869 77.0313 78.6395 77.0792 78.8063 77.1182C78.9732 77.1573 79.1382 77.1999 79.3015 77.246C79.4648 77.2886 79.6156 77.3454 79.7541 77.4164C79.8925 77.4874 80.0043 77.5832 80.0895 77.7039C80.1747 77.8246 80.2173 77.9808 80.2173 78.1725C80.2173 78.3464 80.1694 78.5097 80.0735 78.6623C79.9777 78.8114 79.8304 78.9321 79.6316 79.0244C79.4364 79.1131 79.1844 79.1575 78.8756 79.1575ZM82.4449 79.1309V75.4038H82.7164V79.1309H82.4449ZM85.3196 79.1309V75.4038H85.5912V78.8859H87.7369V79.1309H85.3196ZM89.7387 79.1309V75.4038H90.0102V78.8859H92.1559V79.1309H89.7387ZM95.0906 79.1575C94.8137 79.1575 94.551 79.1113 94.3026 79.019C94.0576 78.9232 93.8677 78.8007 93.7328 78.6517L93.8553 78.4493C93.9831 78.5807 94.157 78.6925 94.3771 78.7848C94.6007 78.8735 94.8368 78.9179 95.0852 78.9179C95.3337 78.9179 95.536 78.8859 95.6922 78.822C95.8519 78.7546 95.9691 78.6659 96.0436 78.5558C96.1217 78.4458 96.1608 78.3233 96.1608 78.1884C96.1608 78.0287 96.1182 77.9009 96.033 77.8051C95.9478 77.7093 95.836 77.6329 95.6975 77.5761C95.5591 77.5193 95.4082 77.4714 95.245 77.4324C95.0817 77.3933 94.9166 77.3525 94.7498 77.3099C94.583 77.2638 94.4303 77.2052 94.2919 77.1342C94.1535 77.0632 94.0417 76.9674 93.9565 76.8467C93.8748 76.7225 93.834 76.5627 93.834 76.3675C93.834 76.19 93.8802 76.0268 93.9724 75.8777C94.0647 75.7286 94.2085 75.6079 94.4037 75.5156C94.5989 75.4233 94.8492 75.3772 95.1545 75.3772C95.3603 75.3772 95.5627 75.4073 95.7614 75.4677C95.9638 75.528 96.1359 75.6097 96.2779 75.7126L96.1767 75.9309C96.0206 75.8244 95.8519 75.7463 95.6709 75.6966C95.4934 75.6434 95.3213 75.6168 95.1545 75.6168C94.9166 75.6168 94.7196 75.6505 94.5634 75.7179C94.4073 75.7854 94.2919 75.8759 94.2174 75.9895C94.1428 76.0995 94.1056 76.2238 94.1056 76.3622C94.1056 76.5219 94.1464 76.6497 94.228 76.7455C94.3132 76.8414 94.425 76.9177 94.5634 76.9745C94.7019 77.0313 94.8545 77.0792 95.0213 77.1182C95.1882 77.1573 95.3532 77.1999 95.5165 77.246C95.6798 77.2886 95.8306 77.3454 95.9691 77.4164C96.1075 77.4874 96.2193 77.5832 96.3045 77.7039C96.3897 77.8246 96.4323 77.9808 96.4323 78.1725C96.4323 78.3464 96.3844 78.5097 96.2885 78.6623C96.1927 78.8114 96.0454 78.9321 95.8466 79.0244C95.6514 79.1131 95.3994 79.1575 95.0906 79.1575Z" fill="white"/>
</svg>
